<?xml version="1.0" standalone="no"?>
<!DOCTYPE svg PUBLIC "-//W3C//DTD SVG 20010904//EN"
 "http://www.w3.org/TR/2001/REC-SVG-20010904/DTD/svg10.dtd">
<svg version="1.0" xmlns="http://www.w3.org/2000/svg"
 width="512.000000pt" height="512.000000pt" viewBox="0 0 512.000000 512.000000"
 preserveAspectRatio="xMidYMid meet">

<g transform="translate(0.000000,512.000000) scale(0.100000,-0.100000)"
fill="#000000" stroke="none">
<path d="M2220 4633 c-146 -5 -487 -34 -635 -53 -761 -99 -1256 -288 -1391
-532 l-29 -53 0 -235 0 -235 29 -53 c56 -101 188 -202 368 -283 l78 -34 0
-1313 0 -1313 25 -24 c24 -25 26 -25 215 -25 189 0 191 0 215 25 l25 24 0
1244 0 1244 133 -24 c288 -52 597 -88 842 -98 77 -3 159 -8 183 -11 l42 -5 0
-935 0 -935 25 -24 c24 -25 26 -25 215 -25 189 0 191 0 215 25 l25 24 0 934 0
935 31 6 c17 3 64 6 104 6 188 0 652 51 938 103 l127 24 0 -1244 0 -1244 25
-24 c24 -25 26 -25 215 -25 189 0 191 0 215 25 l25 24 0 1313 0 1313 78 34
c180 81 312 182 368 283 l29 53 0 235 0 235 -29 53 c-147 264 -722 466 -1572
552 -347 35 -772 47 -1134 33z"/>
</g>
</svg>
